<?xml version="1.0" encoding="UTF-8"?>
<svg id="Layer_1" data-name="Layer 1" xmlns="http://www.w3.org/2000/svg" viewBox="0 0 1080 418">
  <g>
    <g>
      <path d="m326.21,134.22c2.28,10.19,4.36,20.42,6.91,30.54,1.76,7,2.06,13.83.61,20.93-1.93,9.46-3.37,19.01-4.99,28.53-5.19,30.36-10.37,60.73-15.56,91.09-.58,3.42-2.23,4.53-5.77,3.92-48.94-8.37-97.87-16.76-146.81-25.08-2.27-.39-3.65-1.43-4.7-3.42-4.49-8.48-9.1-16.9-13.62-25.36-.57-1.07-1.27-1.6-2.47-1.79-3.82-.59-7.63-1.27-11.43-1.94-3.44-.6-4.58-2.24-3.99-5.74,3.78-22.45,7.55-44.9,11.36-67.34.93-5.46,2.03-10.89,2.99-16.35,1.04-5.89,1.95-11.8,3.04-17.68.37-2.01.91-4.04,1.74-5.89,3.46-7.7,7.05-15.35,10.61-23.01,6.24-13.4,12.53-26.78,18.75-40.19,2.69-5.8,7.96-8.71,14.3-7.62,46.79,7.99,93.59,16,140.38,24.02,6.96,1.19,11.67,5.19,14.12,11.82,3.17,8.54,6.32,17.09,9.47,25.64,1.61,4.37-.48,6.9-5.09,6.13-5.84-.98-11.67-2-17.5-2.99-.76-.13-1.53-.19-2.66-.33.15.96.2,1.54.32,2.11Zm14.98-8.87c-2.36-6.4-4.74-12.79-7.1-19.18-1.41-3.83-4.19-5.9-8.15-6.58-46.2-7.9-92.4-15.8-138.6-23.71-4.68-.8-5.92-.06-7.89,4.22-6.48,14.02-13.04,28-19.53,42.02-3.27,7.06-6.75,14.05-9.54,21.3-1.42,3.69-1.55,7.89-2.24,11.86-.28,1.61-.5,3.22-.77,4.83-1.29,7.62-2.57,15.25-3.9,22.86-3.43,19.63-6.89,39.25-10.33,58.87-.44,2.53-.43,2.53,2.13,2.96,2.86.49,5.71,1.02,8.58,1.45,1.88.28,3.19,1.18,4.1,2.88,2.94,5.55,5.95,11.06,8.93,16.58.28.51.59,1.01,1.17,1.99.26-1.1.43-1.69.53-2.3,4.16-24.29,8.31-48.58,12.47-72.87,2.12-12.37,4.07-24.78,6.43-37.11,1.34-7.01,1.5-14.01,1.31-21.08-.21-7.54-.31-15.08-.43-22.63-.04-2.61,1.67-4.44,4-4.43,2.26.02,3.89,1.8,3.93,4.31.19,11.29.39,22.57.56,33.86.02,1.02-.09,2.05-.25,3.06-1.3,8.05-2.57,16.1-3.95,24.13-5.72,33.26-11.49,66.51-17.23,99.77-.14.83-.23,1.68-.44,2.5-.35,1.33-.03,2.11,1.47,2.18.48.02.95.15,1.43.24,45.13,7.72,90.26,15.45,135.39,23.17q2.65.45,3.11-2.18c4.45-26.02,8.9-52.04,13.36-78.05,1.01-5.89,2.07-11.78,3.08-17.67,1.33-7.78,2.74-15.56,3.88-23.37.35-2.39.28-4.98-.23-7.34-2.76-12.92-5.76-25.79-8.56-38.71-.44-2.03-1.32-2.82-3.38-3.17-38.06-6.44-76.09-13-114.15-19.44-2.89-.49-4.65-1.71-5.68-4.49-1.43-3.84-3.22-7.55-4.74-11.36-.4-1.02-.63-2.26-.45-3.32.3-1.79,1.65-2.78,3.45-2.94,1.93-.17,3.26.83,4.01,2.51,1.4,3.14,2.78,6.29,4.01,9.5.63,1.65,1.56,2.41,3.35,2.72,44.96,7.64,89.91,15.35,134.86,23.03.68.12,1.38.14,2.23.22-.09-.54-.1-.83-.2-1.09Z"/>
      <path d="m296.98,197.42c-3.53-.6-5.89-3.95-5.29-7.48.29-1.69,1.21-3.1,2.47-4.06-1.78-1.36-3.91-2.32-6.27-2.72-7.83-1.34-15.27,3.92-16.61,11.76-1.34,7.83,3.92,15.27,11.76,16.61,7.83,1.34,15.27-3.92,16.61-11.76.14-.85.21-1.69.2-2.52-.91.26-1.88.33-2.87.16Z"/>
      <path d="m233.85,186.61c-3.53-.6-5.89-3.95-5.29-7.48.29-1.69,1.21-3.1,2.47-4.06-1.78-1.36-3.91-2.32-6.27-2.72-7.83-1.34-15.27,3.92-16.61,11.76-1.34,7.83,3.92,15.27,11.76,16.61,7.83,1.34,15.27-3.92,16.61-11.76.14-.85.21-1.69.2-2.52-.91.26-1.88.33-2.87.16Z"/>
      <path d="m254.55,264.14c-4.3,0-8.78-.38-13.3-1.16-21.87-3.74-43.85-16.87-40.43-36.85.35-2.06,2.31-3.45,4.37-3.09,2.06.35,3.45,2.31,3.09,4.37-2.43,14.19,15.39,24.88,34.24,28.11,18.85,3.23,39.21-.93,41.64-15.13.35-2.06,2.31-3.45,4.37-3.09,2.06.35,3.45,2.31,3.09,4.37-1.59,9.29-8.09,16.11-18.79,19.73-5.37,1.82-11.62,2.74-18.29,2.74Z"/>
    </g>
    <path d="m81.29,240.28c6.25-2.12,13.15-4.26,19.51-6.1,1.63-.47,3.25-1.03,4.87-1.56,3.26-1.06,6.65-1.49,10.08-1.65,1.73-.06,3.47-.05,5.27.2l.1.44c-4.42,2.78-9.32,4.59-14.45,5.39-2.94.35-7.14,1.05-10.1,1.56-4.89.75-10.29,1.57-15.19,2.17,0,0-.1-.44-.1-.44h0Z"/>
    <path d="m69.05,262.82c6.25-2.12,13.15-4.26,19.51-6.1,1.63-.47,3.25-1.03,4.87-1.56,3.26-1.06,6.65-1.49,10.08-1.65,1.73-.06,3.47-.05,5.27.2l.1.44c-4.42,2.78-9.32,4.59-14.45,5.39-2.94.35-7.14,1.05-10.1,1.56-4.89.75-10.29,1.57-15.19,2.17,0,0-.1-.44-.1-.44h0Z"/>
    <path d="m91.37,274.3c6.25-2.12,13.15-4.26,19.51-6.1,1.63-.47,3.25-1.03,4.87-1.56,3.26-1.06,6.65-1.49,10.08-1.65,1.73-.06,3.47-.05,5.27.2,0,0,.1.44.1.44-4.42,2.78-9.32,4.59-14.45,5.39-2.94.35-7.14,1.05-10.1,1.56-4.89.75-10.29,1.57-15.19,2.17,0,0-.1-.44-.1-.44h0Z"/>
    <path d="m248.7,343.41l-5.65-2.17c4.83-12.55,7.35-44.71,7.37-45.04l6.03.46c-.1,1.36-2.61,33.37-7.76,46.74Z"/>
    <path d="m196.53,324.55c-4.31,0-8.96-.56-13.48-1.22l.87-5.99c15.64,2.27,22.4,1.25,24.12-3.61,4.23-11.96,6.96-24.57,6.99-24.7l5.92,1.27c-.11.53-2.84,13.12-7.2,25.44-2.43,6.87-9.22,8.8-17.22,8.8Z"/>
    <path d="m153.09,212.73c-.27,0-.55-.04-.82-.11-1.61-.45-2.55-2.12-2.09-3.73l6.68-23.8,19.87.39c1.67.03,3,1.41,2.97,3.08-.03,1.67-1.42,2.98-3.08,2.97l-15.19-.3-5.42,19.29c-.38,1.34-1.59,2.21-2.91,2.21Z"/>
    <path d="m336.22,240.85l-15.62-8.31c-1.48-.78-2.04-2.62-1.25-4.09.79-1.48,2.62-2.03,4.09-1.25l10.84,5.76,9.45-13.87c.94-1.38,2.82-1.74,4.2-.8,1.38.94,1.74,2.82.8,4.2l-12.5,18.35Z"/>
    <g>
      <ellipse cx="247.88" cy="337.64" rx="6.71" ry="3.36"/>
      <ellipse cx="252.58" cy="344.02" rx="12.75" ry="6.38"/>
    </g>
    <g>
      <ellipse cx="186.61" cy="320.85" rx="3.26" ry="6.51"/>
      <ellipse cx="180.43" cy="325.41" rx="6.19" ry="12.38"/>
    </g>
  </g>
  <g>
    <path d="m412.18,107.4c.22-3.75,2.43-6.18,6.18-6.18h4.42l97.38,121.23h1.77c.44-11.26-.66-103.34-.66-114.82,0-1.77-.44-6.4,3.09-6.4h4.42c4.2,0,4.64,4.2,4.64,7.73,0,17.89,0,128.07.44,133.59,0,3.75,1.55,8.83-3.97,8.83h-4.2c-3.98,0-3.53-4.2-4.42-7.07-1.99-6.4-83.91-106.88-95.17-121.23h-2.21c0,14.79.44,117.48.66,119.46-.44,3.75,1.1,8.83-4.42,8.83h-3.53c-4.2,0-4.42-4.42-4.2-7.95.22-8.61-.22-133.37-.22-136.02Z"/>
    <path d="m629.69,99.01c42.4,0,65.14,33.34,65.58,77.29.66,44.16-23.85,77.29-66.69,77.29-46.37,0-66.25-32.9-66.69-77.29-.44-43.5,22.52-77.29,67.79-77.29Zm-.44,143.75c37.76,0,53.66-31.8,53.66-66.69s-15.9-66.25-53.66-66.25c-39.75,0-54.54,30.25-54.76,66.25-.22,35.55,14.57,66.69,54.76,66.69Z"/>
    <path d="m700.8,106.52c-1.77-4.2-1.1-5.3,1.99-5.3h4.42c3.09,0,4.42,1.77,5.52,5.08,1.77,4.2,43.06,119.24,48.8,134.48h1.33c5.3-13.91,46.59-128.52,49.24-134.92,1.77-4.42,2.65-4.64,6.18-4.64h2.87c3.09,0,3.75,1.55,2.65,4.64-1.99,5.3-47.25,129.62-49.46,137.35-1.54,5.3-6.18,8.17-11.04,8.17h-1.99c-6.62,0-9.5-3.31-11.26-8.39-1.99-5.96-48.58-134.04-49.24-136.46Z"/>
    <path d="m842.56,107.4c.22-3.75,1.55-6.18,3.97-6.18h3.97c4.2,0,3.75,2.21,3.75,5.74-.22,3.98.22,34.23.22,74.42,0,36.88,10.16,61.39,47.48,61.39,34.01,0,47.03-23.41,47.03-61.83s-.22-70.88-.22-73.53c0-3.75,1.1-6.18,3.53-6.18h3.53c4.2,0,5.3,2.21,5.08,5.74-.22,3.98,0,63.82-.22,74.19-.66,43.5-13.69,72.43-58.96,72.43s-59.4-28.49-59.4-72.21c0-29.37.44-71.32.22-73.97Z"/>
  </g>
  <g>
    <path d="m413.04,330.4c-.18-13.4-.35-44.87-.26-45.58,0-2.82,1.41-3.53,3.79-3.53h30.15c.79,0,2.47,0,2.47,1.68v.88c0,1.32-.44,1.76-2.12,1.76h-29.8l.18,24.33c4.14,0,20.45-.18,27.06-.18.97,0,2.12.09,2.12,1.59v1.06c0,.97-.62,1.76-1.5,1.76-2.91,0-20.54,0-27.59.09,0,9.43,0,23.1.09,23.63.26,1.76-.35,3.35-1.5,3.35h-1.32c-1.76,0-2.12-.35-1.94-3.53.09-.88.18-4.14.18-7.32Z"/>
    <path d="m482.16,280.41c16.93,0,26.01,13.31,26.18,30.86.26,17.63-9.52,30.86-26.62,30.86-18.51,0-26.45-13.14-26.62-30.86-.18-17.37,8.99-30.86,27.06-30.86Zm-.18,57.39c15.07,0,21.42-12.7,21.42-26.62s-6.35-26.45-21.42-26.45c-15.87,0-21.78,12.08-21.86,26.45-.09,14.19,5.82,26.62,21.86,26.62Z"/>
    <path d="m543.17,280.41c16.93,0,26.01,13.31,26.19,30.86.26,17.63-9.52,30.86-26.63,30.86-18.51,0-26.45-13.14-26.63-30.86-.18-17.37,8.99-30.86,27.07-30.86Zm-.18,57.39c15.08,0,21.42-12.7,21.42-26.62s-6.35-26.45-21.42-26.45c-15.87,0-21.78,12.08-21.86,26.45-.09,14.19,5.82,26.62,21.86,26.62Z"/>
    <path d="m580.73,284.82c0-2.82,1.15-3.53,3.44-3.53h10.76c24.77,0,33.06,12.52,33.06,29.09.09,18.25-8.38,30.86-33.15,30.86h-11.2c-1.68,0-3.17-1.06-3.17-3.17.18-3.44.35-47.52.26-53.25Zm14.46,52.1c21.25,0,27.86-10.76,27.86-26.54,0-13.31-6.35-24.77-27.77-24.77h-9.96c.09,11.37-.18,36.41-.09,51.31h9.96Z"/>
    <path d="m636.01,334.28c-.18-1.94,2.2-2.64,2.2-2.64,0,0,5.03,6.17,15.78,6.17s17.46-4.94,17.46-12.17c0-5.29-4.58-9.61-11.64-11.37l-10.76-2.91c-7.41-1.94-15.16-5.38-15.16-14.63s7.49-16.31,21.07-16.31c7.49,0,11.64,1.41,15.25,3.26,1.5.88,3.17,2.38,2.47,4.05-.62,1.41-2.2,1.94-2.2,1.94,0,0-5.11-4.94-15.52-4.94-11.11,0-16.13,5.38-16.13,11.99s6.35,8.64,11.46,10.05l11.02,3c9.52,2.73,15.08,7.41,15.08,15.78,0,10.05-8.82,16.57-22.39,16.57-7.85,0-13.58-2.47-16.04-4.23-1.41-1.15-1.85-2.12-1.94-3.61Z"/>
  </g>
</svg>